<?xml version="1.0" encoding="UTF-8" standalone="no"?>
<svg
   version="1.1"
   viewBox="0 0 512 512"
   enable-background="new 0 0 512 512"
   id="svg6"
   sodipodi:docname="eye.svg"
   inkscape:version="1.1.1 (3bf5ae0d25, 2021-09-20, custom)"
   xmlns:inkscape="http://www.inkscape.org/namespaces/inkscape"
   xmlns:sodipodi="http://sodipodi.sourceforge.net/DTD/sodipodi-0.dtd"
   xmlns="http://www.w3.org/2000/svg"
   xmlns:svg="http://www.w3.org/2000/svg">
  <defs
     id="defs10" />
  <sodipodi:namedview
     id="namedview8"
     pagecolor="#ffffff"
     bordercolor="#666666"
     borderopacity="1.0"
     inkscape:pageshadow="2"
     inkscape:pageopacity="0.0"
     inkscape:pagecheckerboard="0"
     showgrid="false"
     inkscape:zoom="0.65988809"
     inkscape:cx="245.49617"
     inkscape:cy="310.65874"
     inkscape:window-width="1366"
     inkscape:window-height="703"
     inkscape:window-x="0"
     inkscape:window-y="0"
     inkscape:window-maximized="1"
     inkscape:current-layer="svg6" />
  <g
     id="g4"
     transform="translate(0,120)">
    <path
       d="M 496.4,243.1 C 432.5,164.4 347.1,121 256,121 164.9,121 79.5,164.4 15.6,243.1 c -6.1,7.5 -6.1,18.2 0,25.7 C 79.5,347.6 164.9,391 256,391 c 91.1,0 176.5,-43.4 240.4,-122.1 6.1,-7.5 6.1,-18.3 0,-25.8 z M 256,322.9 c -36.9,0 -66.9,-30 -66.9,-66.9 0,-36.9 30,-66.9 66.9,-66.9 36.9,0 66.9,30 66.9,66.9 0,36.9 -30,66.9 -66.9,66.9 z M 58.2,256 c 37.8,-42.2 82.9,-71.1 131.5,-84.9 -25.2,19.7 -41.5,50.4 -41.5,84.9 0,34.4 16.2,65.1 41.5,84.9 C 141.1,327.1 96.1,298.2 58.2,256 Z m 264.1,84.9 c 25.2,-19.7 41.5,-50.4 41.5,-84.9 0,-34.4 -16.2,-65.1 -41.5,-84.9 48.6,13.8 93.7,42.7 131.5,84.9 -37.9,42.2 -82.9,71.1 -131.5,84.9 z"
       id="path2" />
  </g>
</svg>
