<?xml version="1.0" encoding="UTF-8" standalone="no"?>
<!-- Generator: Adobe Illustrator 19.0.0, SVG Export Plug-In . SVG Version: 6.00 Build 0)  -->

<svg
   version="1.1"
   id="Layer_1"
   x="0px"
   y="0px"
   viewBox="0 0 600 720"
   xml:space="preserve"
   sodipodi:docname="youtube.svg"
   width="600"
   height="720"
   inkscape:version="1.1.1 (3bf5ae0d25, 2021-09-20, custom)"
   xmlns:inkscape="http://www.inkscape.org/namespaces/inkscape"
   xmlns:sodipodi="http://sodipodi.sourceforge.net/DTD/sodipodi-0.dtd"
   xmlns="http://www.w3.org/2000/svg"
   xmlns:svg="http://www.w3.org/2000/svg"><defs
   id="defs45" /><sodipodi:namedview
   id="namedview43"
   pagecolor="#ffffff"
   bordercolor="#666666"
   borderopacity="1.0"
   inkscape:pageshadow="2"
   inkscape:pageopacity="0.0"
   inkscape:pagecheckerboard="0"
   showgrid="false"
   inkscape:zoom="0.17284479"
   inkscape:cx="0"
   inkscape:cy="133.06736"
   inkscape:window-width="1366"
   inkscape:window-height="703"
   inkscape:window-x="0"
   inkscape:window-y="0"
   inkscape:window-maximized="1"
   inkscape:current-layer="Layer_1" />
<g
   id="g10"
   transform="matrix(1.0823335,0,0,1.0823335,37.235002,248.20495)"
   style="stroke-width:3;stroke-miterlimit:4;stroke-dasharray:none">
	<g
   id="g8"
   style="stroke-width:3;stroke-miterlimit:4;stroke-dasharray:none">
		<g
   id="g6"
   style="stroke-width:3;stroke-miterlimit:4;stroke-dasharray:none">
			<path
   style="fill:none;stroke:#000000;stroke-width:36.95718556;stroke-miterlimit:4;stroke-dasharray:none;stroke-opacity:1"
   d="M 380,70 H 110 C 49.346,70 0,119.346 0,180 v 130 c 0,60.654 49.346,110 110,110 h 270 c 60.654,0 110,-49.346 110,-110 V 180 C 490,119.346 440.654,70 380,70 Z"
   id="path2" />
			<path
   style="stroke-width:4.3;stroke-miterlimit:4;stroke-dasharray:none"
   d="m 210,280 v -70 l 84,35 z"
   id="path963" /><path
   style="stroke-width:4.3;stroke-miterlimit:4;stroke-dasharray:none"
   d="m 323.846,235.769 -120,-50 c -3.085,-1.286 -6.611,-0.945 -9.393,0.911 -2.782,1.854 -4.453,4.977 -4.453,8.32 v 100 c 0,3.344 1.671,6.466 4.453,8.32 1.667,1.112 3.601,1.68 5.548,1.68 1.301,0 2.608,-0.254 3.845,-0.769 l 120,-50 C 327.573,252.678 330,249.037 330,245 c 0,-4.037 -2.428,-7.678 -6.154,-9.231 z"
   id="path4" />
		</g>
	</g>
</g>
<g
   id="g12">
</g>
<g
   id="g14">
</g>
<g
   id="g16">
</g>
<g
   id="g18">
</g>
<g
   id="g20">
</g>
<g
   id="g22">
</g>
<g
   id="g24">
</g>
<g
   id="g26">
</g>
<g
   id="g28">
</g>
<g
   id="g30">
</g>
<g
   id="g32">
</g>
<g
   id="g34">
</g>
<g
   id="g36">
</g>
<g
   id="g38">
</g>
<g
   id="g40">
</g>
</svg>
